# xmcd
#
# Track frame offsets: 
#        150
#        11782
#        22065
#        33621
#        44596
#        56140
#        68890
#        78729
#        90495
#        103042
#        113550
#        126545
#        140284
#        152050
#        165037
#        174204
#        185993
#
# Disc length: 2621 seconds
#
# Revision: 0
# Processed by: cddbd v1.5.2PL0 Copyright (c) Steve Scherf et al.
# Submitted via: ExactAudioCopy v0.99pb5
#
DISCID=e90a3b11
DTITLE=George Jones - The Great George Jones Disc 2
DYEAR=1900
DGENRE=
TTITLE0=she thinks i still care
TTITLE1=walk through this with me
TTITLE2=white lightnin
TTITLE3=once a day
TTITLE4=a house without love is not a home
TTITLE5=a lifetime to regret
TTITLE6=back in my babys arms again
TTITLE7=when i wake up from dreaming
TTITLE8=brothers of a bottle
TTITLE9=the one i loved back then
TTITLE10=cold heart
TTITLE11=hearts in my dream
TTITLE12=i can't change overnight
TTITLE13=wedding bells
TTITLE14=jonesy
TTITLE15=least of all
TTITLE16=let a little lovin come in
EXTD=
EXTT0=
EXTT1=
EXTT2=
EXTT3=
EXTT4=
EXTT5=
EXTT6=
EXTT7=
EXTT8=
EXTT9=
EXTT10=
EXTT11=
EXTT12=
EXTT13=
EXTT14=
EXTT15=
EXTT16=
PLAYORDER=
